<svg width="16" height="17" viewBox="0 0 16 17" fill="none" xmlns="http://www.w3.org/2000/svg">
<path d="M5.859 13.691L5.049 14.496C4.70967 14.83 4.25263 15.0172 3.7765 15.0172C3.30037 15.0172 2.84333 14.83 2.504 14.496C2.33855 14.3322 2.20722 14.1372 2.11759 13.9223C2.02796 13.7074 1.98181 13.4769 1.98181 13.244C1.98181 13.0112 2.02796 12.7807 2.11759 12.5658C2.20722 12.3509 2.33855 12.1559 2.504 11.992L5.484 9.03703C6.101 8.42403 7.263 7.52203 8.11 8.36203C8.20115 8.45922 8.31094 8.53706 8.43283 8.59088C8.55472 8.64471 8.68621 8.67343 8.81944 8.67533C8.95267 8.67723 9.08492 8.65227 9.2083 8.60194C9.33167 8.55161 9.44364 8.47693 9.53753 8.38238C9.63141 8.28782 9.70528 8.17532 9.75473 8.05159C9.80419 7.92786 9.8282 7.79544 9.82535 7.66222C9.8225 7.529 9.79285 7.39773 9.73815 7.27622C9.68345 7.15472 9.60484 7.04548 9.507 6.95503C8.069 5.52703 5.941 5.79103 4.088 7.63003L1.108 10.586C0.755889 10.9332 0.47654 11.347 0.286291 11.8034C0.0960421 12.2598 -0.00128703 12.7496 -2.71219e-06 13.244C-0.0012312 13.7385 0.0961232 14.2282 0.286369 14.6846C0.476615 15.141 0.755934 15.5549 1.108 15.902C1.81769 16.606 2.77739 17.0001 3.777 16.998C4.744 16.998 5.711 16.633 6.446 15.902L7.257 15.097C7.34948 15.0056 7.423 14.8967 7.47332 14.7768C7.52365 14.6568 7.5498 14.5281 7.55026 14.3981C7.55072 14.268 7.5255 14.1391 7.47603 14.0188C7.42656 13.8985 7.35383 13.7892 7.262 13.697C7.07636 13.5109 6.82461 13.4058 6.56173 13.4047C6.29886 13.4035 6.04622 13.5065 5.859 13.691ZM14.891 2.20703C13.344 0.673028 11.182 0.590029 9.752 2.01003L8.743 3.01203C8.55655 3.19715 8.45128 3.44875 8.45034 3.71149C8.4494 3.97423 8.55288 4.22658 8.738 4.41303C8.92312 4.59948 9.17472 4.70475 9.43746 4.70568C9.7002 4.70662 9.95255 4.60315 10.139 4.41803L11.149 3.41703C11.889 2.68103 12.86 2.98603 13.495 3.61403C13.831 3.94903 14.017 4.39303 14.017 4.86603C14.017 5.33903 13.831 5.78303 13.495 6.11703L10.315 9.27103C8.861 10.712 8.179 10.037 7.888 9.74803C7.79568 9.65637 7.68621 9.58379 7.56584 9.53443C7.44547 9.48507 7.31656 9.45991 7.18646 9.46037C7.05637 9.46084 6.92764 9.48692 6.80762 9.53713C6.68761 9.58735 6.57866 9.66071 6.487 9.75303C6.39533 9.84535 6.32275 9.95482 6.2734 10.0752C6.22404 10.1956 6.19888 10.3245 6.19934 10.4546C6.19981 10.5847 6.22589 10.7134 6.2761 10.8334C6.32632 10.9534 6.39968 11.0624 6.492 11.154C7.16 11.816 7.922 12.144 8.72 12.144C9.697 12.144 10.73 11.652 11.713 10.677L14.893 7.52403C15.2443 7.17637 15.5231 6.76237 15.7132 6.30609C15.9032 5.8498 16.0007 5.36031 16 4.86603C16.0009 4.37139 15.9033 3.88153 15.7129 3.42501C15.5225 2.96848 15.2431 2.55444 14.891 2.20703Z" fill="#1CD49A"/>
</svg>
