<svg width="68" height="86" viewBox="0 0 68 86" fill="none" xmlns="http://www.w3.org/2000/svg">
<g filter="url(#filter0_d)">
<rect x="13" y="9" width="42" height="60" rx="10" fill="white"/>
</g>
<path d="M36.0835 45.4279H18.441C18.0589 45.4278 17.6925 45.2768 17.4223 45.0081C17.1521 44.7395 17.0002 44.3752 17 43.9954V26.4563C17 25.1793 18.5531 24.5404 19.4607 25.4434L37.1024 42.9817C38.0107 43.8847 37.3673 45.4279 36.0835 45.4279Z" fill="#388CF0"/>
<path d="M49.7555 19.4372H18.2472C17.3644 19.4372 16.7458 18.3527 17.1038 17.3868C18.0609 14.8016 20.2334 13 22.7544 13H45.2432C47.7672 13 49.9389 14.8016 50.8975 17.386C51.257 18.3519 50.642 19.4372 49.7555 19.4372Z" fill="#FBAE46"/>
<path d="M32.4677 28.5501C31.1045 27.2478 32.0703 25.02 33.9961 25.02H49.3416C50.5366 25.02 51.5053 25.9461 51.5053 27.0879V44.5039C51.5053 45.3251 50.466 45.7339 49.8576 45.1551L32.4677 28.5501Z" fill="#DF4534"/>
<path d="M50.2223 52.1914H18.2831C17.5742 52.1914 17 52.8853 17 53.7361V56.1014C17 61.0214 20.3107 65.0008 24.3973 65.0008H44.1037C48.191 65.0008 51.5054 61.0141 51.5054 56.097V53.7361C51.5054 52.8853 50.9319 52.1914 50.2223 52.1914ZM34.4918 60.9461C34.0566 60.9461 33.6313 60.8178 33.2695 60.5775C32.9076 60.3372 32.6257 59.9956 32.4591 59.5959C32.2926 59.1962 32.249 58.7564 32.3339 58.3322C32.4188 57.9079 32.6284 57.5182 32.9361 57.2123C33.2437 56.9064 33.6358 56.6981 34.0626 56.6137C34.4893 56.5293 34.9317 56.5726 35.3337 56.7381C35.7357 56.9037 36.0794 57.184 36.3211 57.5437C36.5629 57.9034 36.6919 58.3263 36.6919 58.7589C36.6921 59.0462 36.6353 59.3307 36.5248 59.5961C36.4143 59.8616 36.2523 60.1028 36.0479 60.3059C35.8436 60.509 35.601 60.6701 35.334 60.78C35.0669 60.8899 34.7808 60.9463 34.4918 60.9461Z" fill="#5CC89B"/>
<defs>
<filter id="filter0_d" x="0" y="0" width="68" height="86" filterUnits="userSpaceOnUse" color-interpolation-filters="sRGB">
<feFlood flood-opacity="0" result="BackgroundImageFix"/>
<feColorMatrix in="SourceAlpha" type="matrix" values="0 0 0 0 0 0 0 0 0 0 0 0 0 0 0 0 0 0 127 0"/>
<feOffset dy="4"/>
<feGaussianBlur stdDeviation="6.5"/>
<feColorMatrix type="matrix" values="0 0 0 0 0.671667 0 0 0 0 0.817917 0 0 0 0 0.866667 0 0 0 1 0"/>
<feBlend mode="normal" in2="BackgroundImageFix" result="effect1_dropShadow"/>
<feBlend mode="normal" in="SourceGraphic" in2="effect1_dropShadow" result="shape"/>
</filter>
</defs>
</svg>
