<svg width="177" height="52" viewBox="0 0 177 52" fill="none" xmlns="http://www.w3.org/2000/svg">
    <g clip-path="url(#clip0)">
        <path d="M19.0844 32.4278H1.44201C1.05988 32.4276 0.693461 32.2766 0.423258 32.008C0.153054 31.7394 0.00116941 31.3751 0.000976562 30.9952V13.4562C0.000976562 12.1791 1.55409 11.5403 2.46165 12.4432L20.1033 29.9816C21.0116 30.8845 20.3683 32.4278 19.0844 32.4278Z" fill="#388CF0"/>
        <path d="M32.7565 6.43723H1.24818C0.365371 6.43723 -0.253253 5.35266 0.104821 4.38675C1.06187 1.80159 3.23433 0 5.7554 0H28.2442C30.7682 0 32.9399 1.80159 33.8984 4.38603C34.258 5.35194 33.643 6.43723 32.7565 6.43723Z" fill="#FBAE46"/>
        <path d="M15.4687 15.5501C14.1055 14.2477 15.0713 12.02 16.997 12.02H32.3426C33.5376 12.02 34.5063 12.9461 34.5063 14.0878V31.5039C34.5063 32.3251 33.467 32.7339 32.8586 32.1551L15.4687 15.5501Z" fill="#DF4534"/>
        <path d="M33.2233 39.1914H1.28408C0.575205 39.1914 0.000976562 39.8853 0.000976562 40.7361V43.1014C0.000976562 48.0214 3.31171 52.0008 7.39826 52.0008H27.1047C31.192 52.0008 34.5064 48.0141 34.5064 43.097V40.7361C34.5064 39.8853 33.9329 39.1914 33.2233 39.1914ZM17.4928 47.9461C17.0576 47.9461 16.6322 47.8178 16.2704 47.5775C15.9086 47.3372 15.6266 46.9956 15.4601 46.5959C15.2936 46.1962 15.25 45.7564 15.3349 45.3322C15.4198 44.9079 15.6293 44.5182 15.937 44.2123C16.2447 43.9064 16.6367 43.6981 17.0635 43.6137C17.4903 43.5293 17.9327 43.5726 18.3347 43.7381C18.7367 43.9037 19.0803 44.184 19.3221 44.5437C19.5638 44.9034 19.6929 45.3263 19.6929 45.7589C19.6931 46.0462 19.6363 46.3307 19.5258 46.5961C19.4153 46.8616 19.2532 47.1028 19.0489 47.3059C18.8446 47.509 18.6019 47.6701 18.3349 47.78C18.0679 47.8899 17.7817 47.9463 17.4928 47.9461Z" fill="#5CC89B"/>
        <path d="M61.5382 27.3868C60.8524 27.3889 60.1686 27.3124 59.5004 27.1589C58.9051 27.024 58.3211 26.8435 57.7537 26.6192C57.2394 26.4108 56.6926 26.1549 56.1133 25.8515C56.2744 25.4034 56.4071 25.0315 56.5114 24.7358C56.6157 24.4401 56.7545 24.0764 56.9277 23.6447C57.4517 23.8795 57.9873 24.0876 58.5325 24.2684C59.0712 24.4419 59.6187 24.5868 60.1729 24.7025C60.781 24.8294 61.4009 24.892 62.0222 24.8892C62.3148 24.8986 62.6072 24.8662 62.8905 24.793C63.0514 24.7501 63.2056 24.6856 63.349 24.6012C63.6143 24.4155 63.8197 24.1571 63.94 23.8574C64.0768 23.5376 64.1452 23.1059 64.1452 22.5623C64.1452 22.0506 64.0045 21.623 63.7231 21.2795C63.409 20.9092 63.0284 20.6001 62.6008 20.3679C62.1104 20.0922 61.6028 19.8479 61.0812 19.6364C60.5019 19.3803 59.9388 19.1164 59.392 18.8448C58.8688 18.5887 58.3789 18.2704 57.9328 17.897C57.4977 17.5258 57.1514 17.0629 56.9189 16.5419C56.67 15.9987 56.5456 15.3273 56.5456 14.5275C56.5456 13.6637 56.7506 12.8919 57.1606 12.2123C57.5706 11.5326 58.1771 10.9888 58.9801 10.5807C59.7835 10.1731 60.7809 9.96932 61.972 9.96932C62.5162 9.96845 63.0599 10.0006 63.6001 10.0655C64.1226 10.1292 64.5972 10.2016 65.0236 10.2826C65.4501 10.3636 65.9125 10.4755 66.4108 10.6183L65.9523 12.9235C65.422 12.827 64.9368 12.7431 64.4967 12.6717C64.0567 12.6003 63.578 12.5403 63.0608 12.4915C62.546 12.4433 62.0395 12.4192 61.5412 12.4192C61.2577 12.4129 60.9744 12.4372 60.6962 12.4915C60.4975 12.535 60.3091 12.6163 60.1416 12.731C59.9805 12.8275 59.8238 13.0074 59.6715 13.2708C59.5191 13.5341 59.4427 13.914 59.4422 14.4103C59.43 14.8686 59.5851 15.3158 59.8789 15.6693C60.1971 16.0356 60.5871 16.3335 61.0252 16.5447C61.4997 16.7859 62.0091 17.0179 62.5535 17.2408C63.0523 17.4646 63.5671 17.7084 64.0979 17.9723C64.6167 18.2292 65.1049 18.543 65.5535 18.9078C66.0086 19.2837 66.3751 19.7545 66.627 20.2868C66.9006 20.8468 67.0374 21.5344 67.0374 22.3496C67.0374 23.3568 66.8082 24.2361 66.3497 24.9876C65.8874 25.7437 65.2199 26.3549 64.4239 26.7508C63.5938 27.1743 62.6319 27.3863 61.5382 27.3868Z" fill="#18272D"/>
        <path d="M70.9231 31.032L72.8772 25.7314L68.2695 13.019H71.1923L74.1122 22.8532H74.2323L77.1275 13.019H80.0714L75.2454 26.2596L73.8459 31.0349L70.9231 31.032Z" fill="#18272D"/>
        <path d="M85.5197 27.3622C84.8082 27.3739 84.1072 27.1915 83.4927 26.8348C82.8854 26.47 82.3991 25.9362 82.0939 25.2994C81.7543 24.628 81.5845 23.8126 81.5845 22.8532C81.5845 21.7018 81.8295 20.7984 82.3195 20.1429C82.8096 19.4873 83.5022 19.0195 84.3974 18.7392C85.2901 18.459 86.3399 18.3188 87.5466 18.3188H89.7656C89.7728 17.7148 89.7446 17.1108 89.6812 16.51C89.6244 16.0542 89.524 15.7144 89.3799 15.4906C89.2373 15.3209 89.0489 15.1954 88.8369 15.1288C88.6031 15.0492 88.2693 15.0094 87.8355 15.0094C87.2291 15.0105 86.6238 15.0625 86.0262 15.165C85.4608 15.2589 84.9018 15.3872 84.3523 15.5492C83.8457 15.7011 83.2788 15.8808 82.6514 16.0882L81.9236 14.0261C82.4936 13.7755 83.0767 13.5552 83.6703 13.3663C84.2685 13.1833 84.8758 13.0311 85.4898 12.9105C86.1969 12.7717 86.9161 12.7034 87.6368 12.7064C88.8585 12.7064 89.8275 12.9184 90.5436 13.3424C91.2477 13.7498 91.79 14.385 92.08 15.1418C92.3857 15.9174 92.5383 16.8339 92.5378 17.8912V27.0504H90.7554L90.3915 25.5397H90.2459C90.1489 25.6033 89.956 25.7352 89.6673 25.9354C89.3235 26.1666 88.9646 26.375 88.5931 26.5591C88.1357 26.7871 87.6594 26.9757 87.1696 27.1227C86.6347 27.2838 86.0785 27.3645 85.5197 27.3622ZM86.195 25.0361C86.7139 25.0347 87.2294 24.9537 87.7234 24.7959C88.1747 24.6584 88.6144 24.4859 89.0385 24.28C89.288 24.1637 89.5296 24.0315 89.762 23.8842V20.5748C89.6492 20.5589 89.3886 20.5307 88.9781 20.4909C88.5677 20.4511 88.0415 20.4308 87.3981 20.4308C86.0944 20.4308 85.2902 20.5666 84.9855 20.8382C84.8239 20.9829 84.6943 21.2187 84.599 21.5458C84.4931 21.949 84.4441 22.3649 84.4534 22.7816C84.4534 23.5644 84.5861 24.136 84.8515 24.4963C85.1169 24.8566 85.5648 25.0358 86.195 25.0339V25.0361Z" fill="#18272D"/>
        <path d="M95.1943 27.0504V25.0339L102.191 15.2721V15.152L95.508 15.2967V13.0175H105.52V15.0326L98.548 24.7944V24.9391L105.665 24.7713V27.0497L95.1943 27.0504Z" fill="#18272D"/>
        <path d="M111.576 27.3622C110.865 27.3739 110.164 27.1915 109.549 26.8348C108.942 26.4698 108.456 25.9361 108.15 25.2994C107.811 24.628 107.641 23.8126 107.641 22.8532C107.641 21.7018 107.886 20.7984 108.377 20.1428C108.867 19.4873 109.56 19.0195 110.455 18.7392C111.347 18.459 112.397 18.3188 113.603 18.3188H115.823C115.83 17.7148 115.802 17.1108 115.738 16.51C115.682 16.0542 115.581 15.7144 115.436 15.4906C115.294 15.3206 115.106 15.1949 114.893 15.1288C114.66 15.0492 114.327 15.0094 113.893 15.0094C113.286 15.0105 112.68 15.0625 112.083 15.165C111.517 15.2589 110.958 15.3872 110.409 15.5492C109.902 15.7011 109.335 15.8808 108.707 16.0882L107.984 14.0261C108.554 13.7753 109.137 13.5551 109.73 13.3663C110.329 13.1835 110.936 13.0313 111.55 12.9105C112.257 12.7718 112.977 12.7034 113.698 12.7064C114.919 12.7064 115.888 12.9184 116.604 13.3424C117.307 13.7506 117.848 14.3853 118.137 15.1411C118.442 15.9167 118.595 16.8332 118.595 17.8905V27.0504H116.81L116.446 25.5396H116.3C116.203 25.6033 116.009 25.7352 115.718 25.9354C115.374 26.1665 115.016 26.3748 114.644 26.5591C114.187 26.7871 113.711 26.9757 113.221 27.1227C112.688 27.2833 112.133 27.364 111.576 27.3622ZM112.252 25.0361C112.771 25.0347 113.287 24.9537 113.781 24.7959C114.232 24.6585 114.671 24.486 115.095 24.28C115.346 24.1638 115.589 24.0316 115.823 23.8842V20.5748C115.71 20.5589 115.449 20.5309 115.038 20.4909C114.628 20.4508 114.101 20.4308 113.458 20.4308C112.155 20.4308 111.351 20.5666 111.045 20.8382C110.885 20.9829 110.754 21.2187 110.66 21.5458C110.553 21.9489 110.504 22.3649 110.514 22.7816C110.514 23.5644 110.647 24.136 110.913 24.4963C111.179 24.8566 111.625 25.0358 112.252 25.0339V25.0361Z" fill="#18272D"/>
        <path d="M122.866 27.0504V13.0191H124.676L125.013 14.4104H125.134C125.359 14.2831 125.648 14.1232 126.003 13.9307C126.357 13.7382 126.759 13.5465 127.208 13.3555C127.676 13.1577 128.161 13.001 128.656 12.8874C129.17 12.7673 129.696 12.7069 130.224 12.7072C131.157 12.7072 131.868 12.9313 132.36 13.3794C132.851 13.8275 133.185 14.435 133.361 15.2019C133.547 16.0528 133.636 16.9216 133.626 17.7922V27.0533H130.828V18.4882C130.828 17.673 130.812 17.0532 130.78 16.6287C130.748 16.2043 130.651 15.8806 130.489 15.6578C130.379 15.4843 130.206 15.3597 130.006 15.3097C129.786 15.2525 129.559 15.2243 129.331 15.2258C128.844 15.2294 128.36 15.3025 127.895 15.4429C127.439 15.5747 126.992 15.7349 126.556 15.9226C126.247 16.0508 125.948 16.2033 125.663 16.3784V27.0504H122.866Z" fill="#18272D"/>
        <path d="M149.624 27.3869C148.756 27.3916 147.893 27.262 147.065 27.0027C146.253 26.7425 145.519 26.2849 144.93 25.6714C144.312 25.0395 143.829 24.1522 143.483 23.0095C143.136 21.8669 142.963 20.4077 142.964 18.6322C142.964 16.8731 143.137 15.4299 143.483 14.3026C143.828 13.1753 144.311 12.2958 144.93 11.6639C145.518 11.0523 146.253 10.599 147.065 10.3464C148.738 9.85049 150.52 9.85049 152.193 10.3464C153.001 10.6016 153.731 11.0552 154.316 11.6653C154.935 12.2977 155.417 13.1773 155.763 14.3041C156.109 15.4308 156.282 16.874 156.282 18.6336C156.282 20.4082 156.109 21.8673 155.763 23.011C155.417 24.1547 154.935 25.0419 154.316 25.6729C153.73 26.2843 153 26.7418 152.193 27.0041C151.362 27.2647 150.495 27.3938 149.624 27.3869ZM149.624 24.8922C150.266 24.8922 150.817 24.8198 151.276 24.6751C151.745 24.5237 152.148 24.2196 152.422 23.8119C152.727 23.3778 152.952 22.7541 153.097 21.9409C153.242 21.1276 153.315 20.0404 153.316 18.6792C153.316 17.3359 153.248 16.2525 153.111 15.4291C152.975 14.6058 152.758 13.9787 152.46 13.548C152.187 13.1344 151.777 12.8288 151.301 12.6841C150.757 12.5305 150.193 12.4574 149.627 12.467C148.967 12.467 148.404 12.5394 147.938 12.6841C147.467 12.8313 147.062 13.1366 146.792 13.548C146.494 13.9792 146.273 14.6062 146.129 15.4291C145.984 16.252 145.911 17.3354 145.91 18.6792C145.91 20.039 145.987 21.1262 146.14 21.9409C146.293 22.7556 146.518 23.3793 146.815 23.8119C147.085 24.2231 147.49 24.5282 147.961 24.6751C148.502 24.8284 149.062 24.9006 149.624 24.8893V24.8922Z" fill="#18272D"/>
        <path d="M163.375 27.3623C162.538 27.3623 161.843 27.1744 161.289 26.7986C160.735 26.4229 160.324 25.8588 160.056 25.1063C159.79 24.3553 159.658 23.4038 159.658 22.252V13.019H162.458V21.7057C162.45 22.3182 162.475 22.9306 162.53 23.5406C162.579 23.9805 162.659 24.2882 162.772 24.4638C162.909 24.6131 163.086 24.7212 163.281 24.7757C163.516 24.8436 163.76 24.876 164.005 24.8719C164.65 24.8654 165.288 24.7393 165.886 24.5C166.481 24.2729 167.061 24.0113 167.625 23.7164V13.019H170.399V27.0504H168.59L168.251 25.6598H168.106L166.875 26.3312C166.349 26.6151 165.8 26.8556 165.235 27.0504C164.637 27.2587 164.008 27.3641 163.375 27.3623Z" fill="#18272D"/>
        <path d="M162.421 9.27763H159.626L160.592 6.5H163.385L162.421 9.27763Z" fill="#DF4534"/>
        <path d="M170.298 9.27763H167.504L168.469 6.5H171.264L170.298 9.27763Z" fill="#DF4534"/>
        <path d="M56.1313 43.6193C56.1115 43.5998 56.0959 43.5765 56.0857 43.5507C56.0754 43.5249 56.0706 43.4973 56.0716 43.4696V37.5178C56.0684 37.4594 56.0883 37.4021 56.1269 37.3579C56.1472 37.3376 56.1715 37.3219 56.1984 37.3116C56.2252 37.3014 56.254 37.297 56.2827 37.2986H56.7135C56.7613 37.295 56.809 37.3062 56.85 37.3307C56.8911 37.3552 56.9235 37.3918 56.9428 37.4353L58.8925 41.163L60.8641 37.4353C60.8831 37.3938 60.9139 37.3587 60.9527 37.3344C60.9915 37.3101 61.0366 37.2976 61.0825 37.2986H61.5133C61.542 37.297 61.5708 37.3014 61.5976 37.3116C61.6245 37.3219 61.6488 37.3376 61.6691 37.3579C61.7075 37.4021 61.7271 37.4595 61.7237 37.5178V43.4696C61.7247 43.4973 61.7199 43.5249 61.7097 43.5508C61.6995 43.5766 61.6841 43.6001 61.6643 43.6197C61.6446 43.6393 61.621 43.6547 61.595 43.6648C61.569 43.675 61.5412 43.6797 61.5133 43.6787H61.0912C61.0641 43.6798 61.037 43.6751 61.0119 43.6648C60.9868 43.6546 60.9642 43.6391 60.9457 43.6193C60.9083 43.5785 60.8885 43.5247 60.8903 43.4696V38.9396L59.3292 41.9567C59.3061 42.0142 59.2658 42.0634 59.2138 42.0975C59.1617 42.1316 59.1004 42.1492 59.0381 42.1477H58.763C58.701 42.1476 58.6404 42.1295 58.5887 42.0955C58.5369 42.0616 58.4963 42.0133 58.4719 41.9567L56.9137 38.9396V43.4696C56.9144 43.4973 56.9094 43.5248 56.899 43.5506C56.8887 43.5763 56.8731 43.5997 56.8534 43.6192C56.8336 43.6388 56.8101 43.6542 56.7842 43.6644C56.7582 43.6746 56.7305 43.6795 56.7026 43.6787H56.29C56.2608 43.6806 56.2315 43.6764 56.2042 43.6661C56.1768 43.6559 56.1519 43.6399 56.1313 43.6193Z" fill="#576982"/>
        <path d="M63.6037 43.2047C63.2398 42.8285 63.0457 42.3273 63.0214 41.7012L63.0127 41.3091L63.0214 40.9177C63.0462 40.2906 63.2434 39.7892 63.6131 39.4134C63.9828 39.0377 64.4976 38.8493 65.1575 38.8484C65.8174 38.8484 66.3324 39.0367 66.7026 39.4134C67.0728 39.7902 67.27 40.2916 67.2943 40.9177C67.3059 41.0508 67.3125 41.1817 67.3125 41.3091C67.3125 41.4364 67.3059 41.5674 67.2943 41.7012C67.2695 42.3283 67.0755 42.8295 66.7121 43.2047C66.3487 43.58 65.8307 43.7684 65.1582 43.7698C64.4853 43.7698 63.9671 43.5814 63.6037 43.2047ZM66.0883 42.7171C66.3178 42.4711 66.4416 42.1173 66.4595 41.6557C66.4653 41.5949 66.469 41.4791 66.469 41.3091C66.469 41.1391 66.4653 41.024 66.4595 40.9625C66.4416 40.5009 66.3178 40.1471 66.0883 39.9011C65.8588 39.6551 65.5486 39.5321 65.1575 39.5321C64.7667 39.5321 64.4559 39.6551 64.2274 39.9011C63.9989 40.1471 63.8744 40.5009 63.8562 40.9625L63.8467 41.3091L63.8562 41.6557C63.8746 42.1173 63.9984 42.4711 64.2274 42.7171C64.4559 42.9631 64.7667 43.0868 65.1575 43.0868C65.5483 43.0868 65.8591 42.9631 66.0883 42.7171Z" fill="#576982"/>
        <path d="M69.2834 43.0773V43.4695C69.2841 43.4973 69.2791 43.5249 69.2686 43.5507C69.2582 43.5765 69.2426 43.5999 69.2228 43.6194C69.203 43.639 69.1793 43.6544 69.1533 43.6645C69.1273 43.6747 69.0995 43.6795 69.0716 43.6786H68.6866C68.6587 43.6795 68.6309 43.6747 68.605 43.6645C68.5791 43.6543 68.5555 43.639 68.5358 43.6194C68.5161 43.5998 68.5006 43.5763 68.4904 43.5506C68.4801 43.5248 68.4753 43.4972 68.4762 43.4695V37.4172C68.4744 37.3886 68.4788 37.36 68.4891 37.3333C68.4994 37.3066 68.5154 37.2824 68.5359 37.2623C68.5768 37.2249 68.631 37.2052 68.6866 37.2073H69.1C69.1278 37.2066 69.1555 37.2115 69.1814 37.2217C69.2073 37.2319 69.2308 37.2472 69.2506 37.2667C69.2704 37.2864 69.2859 37.3099 69.2962 37.3358C69.3064 37.3617 69.3112 37.3894 69.3103 37.4172V39.5226C69.6499 39.0736 70.1451 38.8488 70.7957 38.8483C71.4464 38.8478 71.9277 39.056 72.2397 39.4727C72.5604 39.889 72.7302 40.4099 72.7491 41.0355C72.7549 41.1028 72.7586 41.194 72.7586 41.309C72.7586 41.4241 72.7586 41.516 72.7491 41.5825C72.7312 42.2096 72.5613 42.7308 72.2397 43.1461C71.918 43.5614 71.4367 43.7693 70.7957 43.7698C70.1359 43.7698 69.6317 43.5389 69.2834 43.0773ZM71.5839 42.649C71.7853 42.3755 71.8954 42.0169 71.9143 41.5731C71.9202 41.5123 71.9231 41.4284 71.9231 41.309C71.9231 40.1427 71.4891 39.5595 70.621 39.5595C70.2052 39.5595 69.886 39.6946 69.6633 39.9647C69.44 40.2365 69.3156 40.5754 69.3103 40.9263C69.3045 40.9929 69.3016 41.1115 69.3016 41.2815C69.3016 41.4516 69.3016 41.5615 69.3103 41.6281C69.3138 41.9918 69.4345 42.3447 69.6545 42.6353C69.8714 42.9184 70.1936 43.0597 70.621 43.0592C71.0611 43.0592 71.3821 42.9225 71.5839 42.649Z" fill="#576982"/>
        <path d="M73.8989 37.9867C73.8793 37.9669 73.8639 37.9434 73.8538 37.9175C73.8436 37.8916 73.8389 37.8639 73.84 37.8362V37.363C73.8387 37.3055 73.8598 37.2498 73.8989 37.2074C73.9182 37.1868 73.9417 37.1704 73.9677 37.1594C73.9938 37.1485 74.022 37.1431 74.0503 37.1438H74.5911C74.649 37.1438 74.7045 37.1666 74.7455 37.2073C74.7864 37.248 74.8094 37.3033 74.8094 37.3608V37.834C74.8102 37.8622 74.8049 37.8902 74.7938 37.9162C74.7828 37.9421 74.7663 37.9654 74.7454 37.9845C74.7245 38.0041 74.6999 38.0195 74.6731 38.0297C74.6462 38.0399 74.6176 38.0447 74.5889 38.0438H74.0481C74.0207 38.0448 73.9933 38.0402 73.9677 38.0303C73.9421 38.0205 73.9187 38.0057 73.8989 37.9867ZM73.9717 43.6193C73.9519 43.5998 73.9363 43.5765 73.9261 43.5507C73.9158 43.5249 73.911 43.4973 73.912 43.4696V39.1487C73.9111 39.1209 73.916 39.0932 73.9262 39.0673C73.9365 39.0414 73.952 39.0179 73.9718 38.9983C73.9916 38.9786 74.0152 38.9632 74.0413 38.953C74.0673 38.9427 74.0951 38.9379 74.1231 38.9388H74.5263C74.5543 38.9379 74.5821 38.9427 74.6082 38.9529C74.6342 38.9631 74.6579 38.9785 74.6777 38.9982C74.6973 39.018 74.7127 39.0415 74.723 39.0673C74.7332 39.0932 74.7381 39.1209 74.7374 39.1487V43.4688C74.7383 43.4966 74.7334 43.5243 74.7231 43.5501C74.7129 43.5759 74.6973 43.5994 74.6775 43.619C74.6577 43.6386 74.6341 43.654 74.6081 43.6641C74.5821 43.6742 74.5542 43.679 74.5263 43.6779H74.1231C74.0953 43.6789 74.0676 43.6742 74.0417 43.6641C74.0158 43.654 73.9922 43.6388 73.9724 43.6193H73.9717Z" fill="#576982"/>
        <path d="M76.1814 43.6193C76.1618 43.5997 76.1465 43.5763 76.1363 43.5505C76.1262 43.5247 76.1215 43.4972 76.1225 43.4696V37.4172C76.1207 37.3888 76.125 37.3602 76.1352 37.3335C76.1453 37.3068 76.1611 37.2826 76.1814 37.2624C76.2227 37.2251 76.277 37.2054 76.3328 37.2074H76.7367C76.7647 37.2066 76.7925 37.2115 76.8184 37.2218C76.8444 37.232 76.868 37.2475 76.8878 37.2671C76.9075 37.2867 76.923 37.3102 76.9333 37.336C76.9437 37.3618 76.9486 37.3895 76.9478 37.4172V43.4696C76.9485 43.4973 76.9435 43.5248 76.9331 43.5506C76.9228 43.5763 76.9072 43.5997 76.8875 43.6192C76.8677 43.6388 76.8442 43.6542 76.8183 43.6644C76.7923 43.6746 76.7646 43.6794 76.7367 43.6787H76.3328C76.3048 43.6796 76.2769 43.6748 76.2509 43.6646C76.2249 43.6544 76.2012 43.639 76.1814 43.6193Z" fill="#576982"/>
        <path d="M78.717 43.191C78.3434 42.8051 78.1386 42.2781 78.1027 41.6101L78.0933 41.3004L78.1027 40.9994C78.1391 40.3429 78.3439 39.8203 78.717 39.4315C79.0901 39.0427 79.5882 38.8484 80.2111 38.8484C80.8836 38.8484 81.4047 39.0611 81.7744 39.4865C82.1442 39.9119 82.3285 40.4891 82.3276 41.2179V41.3822C82.3285 41.41 82.3237 41.4377 82.3134 41.4636C82.3032 41.4894 82.2877 41.513 82.2679 41.5326C82.248 41.5522 82.2243 41.5675 82.1983 41.5777C82.1723 41.5879 82.1445 41.5927 82.1165 41.592H78.9353V41.6737C78.9424 42.0418 79.0702 42.3974 79.2992 42.6867C79.405 42.8223 79.5416 42.931 79.6979 43.004C79.8541 43.0769 80.0255 43.112 80.198 43.1063C80.443 43.1167 80.6859 43.0583 80.8989 42.9377C81.0551 42.846 81.1933 42.7272 81.3072 42.5868C81.3409 42.5349 81.3844 42.4899 81.4353 42.4544C81.485 42.4362 81.5381 42.4285 81.591 42.432H81.9942C82.0466 42.4301 82.098 42.4462 82.1398 42.4776C82.1584 42.4911 82.1736 42.5089 82.184 42.5294C82.1943 42.5499 82.1996 42.5726 82.1995 42.5955C82.1995 42.7294 82.1165 42.8907 81.952 43.0788C81.7555 43.2889 81.5164 43.4552 81.2504 43.5665C80.9223 43.7082 80.5674 43.778 80.2097 43.7712C79.5867 43.7703 79.0891 43.5769 78.717 43.191ZM81.495 40.9719V40.9444C81.495 40.52 81.3788 40.1736 81.1464 39.9054C80.914 39.6372 80.6022 39.5036 80.2111 39.5046C79.8138 39.5046 79.502 39.6382 79.2759 39.9054C79.0498 40.1727 78.9368 40.519 78.9368 40.9444V40.9719H81.495Z" fill="#576982"/>
        <path d="M86.1936 43.5875C85.9522 43.4765 85.7437 43.3056 85.5881 43.0912C85.4404 42.8884 85.3616 42.644 85.3632 42.3937C85.3603 42.2022 85.4038 42.0128 85.4901 41.8415C85.5763 41.6702 85.7028 41.5221 85.8588 41.4097C86.1887 41.1545 86.638 40.9843 87.2067 40.8989L88.5815 40.7079V40.4431C88.5815 39.816 88.2176 39.5025 87.4898 39.5025C87.2089 39.5025 86.9803 39.5582 86.8115 39.671C86.6539 39.7686 86.5244 39.9053 86.4359 40.0675C86.4205 40.1144 86.3935 40.1567 86.3573 40.1905C86.3239 40.2135 86.2837 40.2247 86.2431 40.2224H85.885C85.8318 40.2214 85.7811 40.2 85.7435 40.1626C85.7059 40.1253 85.6843 40.0748 85.6834 40.022C85.6834 39.8821 85.7494 39.7195 85.8814 39.5343C86.0411 39.3256 86.2504 39.1596 86.4905 39.051C86.8062 38.9058 87.1516 38.8356 87.4993 38.8462C88.1834 38.8462 88.6737 39.0042 88.9701 39.3201C89.2693 39.6417 89.4293 40.0674 89.4155 40.5053V43.4674C89.4162 43.4951 89.4113 43.5227 89.4009 43.5484C89.3905 43.5741 89.375 43.5975 89.3552 43.6171C89.3355 43.6366 89.3119 43.652 89.286 43.6622C89.2601 43.6724 89.2323 43.6773 89.2045 43.6765H88.8049C88.7778 43.6775 88.7508 43.6728 88.7257 43.6625C88.7006 43.6523 88.6779 43.6368 88.6594 43.6172C88.6217 43.5765 88.6018 43.5226 88.604 43.4674V43.0658C88.4549 43.2801 88.2529 43.4528 88.0174 43.5672C87.7603 43.7009 87.4304 43.7677 87.0276 43.7677C86.7394 43.7719 86.4541 43.7102 86.1936 43.5875ZM88.1965 42.7128C88.4531 42.4518 88.5815 42.072 88.5815 41.5732V41.3192L87.5087 41.4741C87.0691 41.5349 86.736 41.6381 86.5094 41.7837C86.2829 41.9294 86.1698 42.1122 86.1703 42.3322C86.1659 42.4463 86.1921 42.5595 86.246 42.6602C86.3 42.761 86.3798 42.8458 86.4774 42.9059C86.6946 43.0433 86.9479 43.1133 87.2052 43.1071C87.3889 43.1134 87.572 43.0816 87.7426 43.0137C87.9133 42.9458 88.0678 42.8433 88.1965 42.7128Z" fill="#576982"/>
        <path d="M90.8137 45.3558C90.7933 45.3357 90.7774 45.3114 90.7671 45.2848C90.7568 45.2581 90.7524 45.2295 90.754 45.201V39.1486C90.7523 39.12 90.7568 39.0913 90.7671 39.0645C90.7774 39.0377 90.7932 39.0134 90.8137 38.9931C90.8553 38.9565 90.9095 38.9371 90.9651 38.9388H91.3522C91.3807 38.9357 91.4095 38.939 91.4366 38.9485C91.4636 38.9579 91.4881 38.9733 91.5084 38.9934C91.5286 39.0136 91.5441 39.038 91.5536 39.0648C91.5631 39.0917 91.5664 39.1203 91.5633 39.1486V39.5495C91.918 39.0816 92.4221 38.8477 93.0757 38.8477C93.7176 38.8477 94.1989 39.0495 94.5196 39.4532C94.8403 39.857 95.0101 40.3721 95.029 40.9987C95.0356 41.0653 95.0385 41.1687 95.0385 41.3084C95.0385 41.448 95.0385 41.5515 95.029 41.618C95.0111 42.2384 94.8413 42.7518 94.5196 43.1584C94.1979 43.5651 93.7166 43.7686 93.0757 43.7691C92.4221 43.7691 91.927 43.5383 91.5902 43.0767V45.2002C91.5911 45.228 91.5864 45.2556 91.5762 45.2815C91.5661 45.3074 91.5508 45.3309 91.5313 45.3507C91.5115 45.3704 91.4878 45.3858 91.4618 45.396C91.4357 45.4062 91.4079 45.411 91.3799 45.4101H90.9672C90.9393 45.4115 90.9114 45.4075 90.885 45.3982C90.8586 45.3889 90.8344 45.3745 90.8137 45.3558ZM93.8624 42.6491C94.0637 42.3756 94.1736 42.017 94.1921 41.5732C94.1979 41.5124 94.2015 41.4285 94.2015 41.3091C94.2015 40.1428 93.7675 39.5596 92.8995 39.5596C92.4716 39.5596 92.1492 39.7007 91.9323 39.9829C91.7135 40.2708 91.5929 40.6206 91.588 40.9813C91.5822 41.0479 91.5793 41.1666 91.5793 41.3366C91.5793 41.5066 91.5793 41.626 91.588 41.6918C91.5932 42.0428 91.7176 42.3817 91.941 42.6534C92.1647 42.924 92.4842 43.0593 92.8995 43.0593C93.3391 43.0593 93.6601 42.9226 93.8624 42.6491Z" fill="#576982"/>
        <path d="M96.2596 45.3558C96.239 45.3358 96.223 45.3116 96.2127 45.2848C96.2024 45.2581 96.198 45.2295 96.1999 45.201V39.1486C96.198 39.12 96.2024 39.0912 96.2127 39.0644C96.223 39.0376 96.239 39.0132 96.2596 38.9931C96.3012 38.9565 96.3554 38.9371 96.4109 38.9388H96.7959C96.8244 38.9357 96.8532 38.939 96.8802 38.9485C96.9073 38.9579 96.9318 38.9733 96.9521 38.9934C96.9723 39.0136 96.9878 39.038 96.9973 39.0648C97.0068 39.0917 97.0101 39.1203 97.007 39.1486V39.5495C97.3612 39.0816 97.8653 38.8477 98.5193 38.8477C99.1613 38.8477 99.6426 39.0495 99.9633 39.4532C100.284 39.857 100.454 40.3721 100.473 40.9987C100.479 41.0653 100.482 41.1687 100.482 41.3084C100.482 41.448 100.482 41.5515 100.473 41.618C100.455 42.2383 100.285 42.7518 99.9633 43.1584C99.6416 43.5651 99.1603 43.7686 98.5193 43.7691C97.8648 43.7691 97.3697 43.5383 97.0339 43.0767V45.2002C97.035 45.228 97.0304 45.2557 97.0202 45.2817C97.0101 45.3076 96.9946 45.3311 96.9749 45.3508C96.9551 45.3705 96.9315 45.3859 96.9055 45.3961C96.8794 45.4063 96.8516 45.4111 96.8236 45.41H96.4109C96.3553 45.4125 96.3009 45.393 96.2596 45.3558ZM99.3076 42.6491C99.5089 42.3756 99.619 42.0169 99.638 41.5732C99.6438 41.5124 99.6474 41.4285 99.6474 41.3091C99.6474 40.1428 99.2134 39.5596 98.3454 39.5596C97.9175 39.5596 97.5951 39.7007 97.3782 39.9829C97.1591 40.2706 97.0385 40.6205 97.0339 40.9813C97.0281 41.0479 97.0252 41.1666 97.0252 41.3366C97.0252 41.5066 97.0252 41.626 97.0339 41.6918C97.0391 42.0428 97.1635 42.3817 97.3869 42.6534C97.6106 42.924 97.9301 43.0593 98.3454 43.0593C98.785 43.0593 99.1057 42.9226 99.3076 42.6491Z" fill="#576982"/>
        <path d="M102.201 43.5621C101.952 43.4565 101.731 43.2959 101.554 43.0926C101.414 42.9167 101.343 42.7706 101.343 42.6584C101.342 42.631 101.347 42.6036 101.358 42.5784C101.369 42.5532 101.386 42.5311 101.407 42.5137C101.446 42.4817 101.495 42.4641 101.546 42.4638H101.931C101.961 42.4623 101.99 42.4685 102.017 42.4819C102.05 42.5048 102.079 42.5326 102.104 42.5644C102.235 42.7258 102.395 42.8617 102.576 42.9652C102.751 43.0617 102.985 43.1099 103.278 43.1099C103.608 43.1099 103.873 43.0491 104.071 42.9276C104.165 42.8751 104.242 42.7981 104.294 42.7049C104.347 42.6118 104.373 42.5061 104.369 42.3994C104.375 42.2669 104.329 42.1373 104.241 42.0377C104.119 41.925 103.973 41.841 103.814 41.7917C103.525 41.6938 103.229 41.6145 102.929 41.5543C102.395 41.4395 102.02 41.2724 101.802 41.0529C101.692 40.9416 101.606 40.8089 101.549 40.6632C101.492 40.5175 101.466 40.3618 101.472 40.2057C101.474 39.9738 101.544 39.7475 101.674 39.5545C101.822 39.3322 102.03 39.1555 102.274 39.0444C102.57 38.9074 102.894 38.8403 103.22 38.8483C103.559 38.8391 103.895 38.9043 104.206 39.0394C104.442 39.1406 104.652 39.2935 104.82 39.4865C104.958 39.6563 105.026 39.7991 105.026 39.9148C105.027 39.9405 105.021 39.9661 105.011 39.9897C105.001 40.0133 104.986 40.0344 104.966 40.0516C104.928 40.0874 104.877 40.1069 104.824 40.1058H104.476C104.439 40.1085 104.402 40.1006 104.37 40.0828C104.337 40.0651 104.31 40.0385 104.292 40.006C104.21 39.9118 104.123 39.822 104.031 39.7368C103.941 39.662 103.836 39.6061 103.724 39.5726C103.561 39.5234 103.391 39.5005 103.22 39.5046C102.92 39.5046 102.691 39.5668 102.533 39.6913C102.456 39.7491 102.394 39.8245 102.352 39.9109C102.311 39.9974 102.291 40.0925 102.294 40.1883C102.29 40.3044 102.326 40.4183 102.395 40.5117C102.462 40.6 102.591 40.6818 102.78 40.7577C103.054 40.8577 103.336 40.9353 103.624 40.99C104.206 41.1115 104.617 41.2847 104.856 41.5095C104.976 41.6199 105.07 41.7545 105.133 41.9043C105.196 42.0541 105.226 42.2155 105.22 42.3777C105.223 42.6323 105.144 42.8812 104.996 43.0889C104.826 43.3166 104.594 43.4904 104.327 43.5896C103.989 43.7185 103.629 43.7805 103.268 43.772C102.901 43.7813 102.536 43.7096 102.201 43.5621Z" fill="#576982"/>
        <path d="M109.038 43.5875C108.796 43.4765 108.588 43.3055 108.433 43.0912C108.285 42.8884 108.206 42.644 108.208 42.3937C108.205 42.2022 108.248 42.0128 108.334 41.8416C108.421 41.6703 108.547 41.5221 108.703 41.4097C109.032 41.1545 109.482 40.9843 110.051 40.8989L111.425 40.7079V40.4431C111.425 39.816 111.062 39.5025 110.334 39.5025C110.053 39.5025 109.824 39.5582 109.655 39.671C109.498 39.7688 109.369 39.9054 109.28 40.0675C109.265 40.1144 109.238 40.1567 109.202 40.1905C109.168 40.2135 109.128 40.2247 109.087 40.2224H108.73C108.676 40.2218 108.626 40.2005 108.588 40.1631C108.55 40.1256 108.529 40.0749 108.528 40.022C108.528 39.8821 108.594 39.7195 108.725 39.5343C108.885 39.3258 109.095 39.1598 109.335 39.051C109.65 38.9058 109.996 38.8356 110.343 38.8462C111.027 38.8462 111.518 39.0042 111.815 39.3201C112.114 39.642 112.273 40.0676 112.26 40.5053V43.4674C112.261 43.4951 112.256 43.5227 112.246 43.5485C112.235 43.5743 112.22 43.5977 112.2 43.6172C112.18 43.6368 112.156 43.6522 112.13 43.6624C112.104 43.6727 112.076 43.6774 112.048 43.6765H111.645C111.618 43.6775 111.591 43.6727 111.566 43.6625C111.541 43.6522 111.518 43.6368 111.5 43.6172C111.463 43.5762 111.443 43.5225 111.445 43.4674V43.0658C111.296 43.28 111.093 43.4526 110.858 43.5672C110.602 43.7009 110.272 43.7677 109.868 43.7677C109.581 43.7713 109.297 43.7097 109.038 43.5875ZM111.04 42.7128C111.297 42.4518 111.425 42.072 111.425 41.5732V41.3192L110.353 41.4741C109.913 41.5349 109.58 41.6381 109.353 41.7837C109.127 41.9294 109.014 42.1117 109.014 42.3307C109.01 42.4448 109.036 42.558 109.09 42.6588C109.144 42.7596 109.224 42.8444 109.321 42.9045C109.539 43.0418 109.792 43.1118 110.049 43.1056C110.233 43.1124 110.417 43.081 110.588 43.0133C110.759 42.9457 110.914 42.8433 111.043 42.7128H111.04Z" fill="#576982"/>
        <path d="M113.652 43.6192C113.632 43.5998 113.616 43.5764 113.606 43.5506C113.595 43.5249 113.591 43.4972 113.591 43.4695V39.1486C113.591 39.1207 113.596 39.093 113.606 39.0671C113.616 39.0412 113.632 39.0177 113.652 38.9981C113.672 38.9783 113.695 38.9628 113.721 38.9526C113.747 38.9424 113.775 38.9377 113.803 38.9387H114.197C114.225 38.9356 114.254 38.939 114.281 38.9484C114.308 38.9579 114.333 38.9732 114.353 38.9933C114.373 39.0135 114.389 39.0379 114.398 39.0648C114.408 39.0916 114.411 39.1203 114.408 39.1486V39.5494C114.581 39.3331 114.798 39.156 115.045 39.0299C115.327 38.8996 115.637 38.8372 115.948 38.8476C116.535 38.8476 116.99 39.0345 117.314 39.4083C117.638 39.7821 117.8 40.2758 117.8 40.8894V43.4688C117.801 43.4965 117.796 43.5242 117.786 43.55C117.776 43.5758 117.76 43.5993 117.74 43.6189C117.721 43.6385 117.697 43.6539 117.671 43.664C117.645 43.6741 117.617 43.6789 117.589 43.6778H117.167C117.139 43.6788 117.111 43.674 117.085 43.6638C117.06 43.6536 117.036 43.6382 117.016 43.6186C116.997 43.599 116.981 43.5756 116.971 43.5498C116.961 43.524 116.956 43.4965 116.957 43.4688V40.9436C116.957 40.5066 116.85 40.1663 116.636 39.9227C116.422 39.6792 116.116 39.5586 115.719 39.561C115.328 39.561 115.016 39.6833 114.784 39.93C114.551 40.1767 114.435 40.5146 114.435 40.9429V43.468C114.436 43.4958 114.431 43.5234 114.421 43.5492C114.411 43.5751 114.395 43.5985 114.376 43.6181C114.356 43.6378 114.332 43.6531 114.306 43.6633C114.28 43.6734 114.252 43.6781 114.225 43.6771H113.803C113.775 43.6784 113.747 43.6739 113.721 43.6639C113.695 43.654 113.672 43.6388 113.652 43.6192Z" fill="#576982"/>
        <path d="M119.428 43.1505C119.106 42.7376 118.934 42.2149 118.909 41.5826L118.9 41.3091L118.909 41.0356C118.933 40.4085 119.107 39.8876 119.432 39.4728C119.757 39.058 120.236 38.8498 120.872 38.8484C121.507 38.8484 122.002 39.0731 122.356 39.5227V37.4172C122.355 37.3894 122.36 37.3617 122.37 37.3359C122.381 37.31 122.396 37.2865 122.416 37.2669C122.436 37.2472 122.459 37.2318 122.485 37.2215C122.511 37.2113 122.539 37.2065 122.567 37.2074H122.98C123.008 37.2064 123.036 37.2111 123.062 37.2213C123.088 37.2315 123.111 37.2469 123.131 37.2666C123.151 37.2863 123.166 37.3099 123.177 37.3358C123.187 37.3617 123.191 37.3894 123.19 37.4172V43.4695C123.191 43.4973 123.187 43.5249 123.176 43.5507C123.166 43.5766 123.151 43.6 123.131 43.6197C123.111 43.6393 123.088 43.6546 123.062 43.6648C123.036 43.6749 123.008 43.6797 122.98 43.6786H122.585C122.558 43.6798 122.531 43.6751 122.506 43.6649C122.481 43.6546 122.458 43.6391 122.44 43.6193C122.402 43.5786 122.382 43.5248 122.385 43.4695V43.0774C122.036 43.539 121.532 43.7698 120.872 43.7698C120.23 43.7698 119.748 43.5634 119.428 43.1505ZM122.008 42.6353C122.225 42.3431 122.347 41.9915 122.356 41.6282C122.362 41.5616 122.366 41.4458 122.366 41.2816C122.366 41.1174 122.362 40.9922 122.356 40.9263C122.352 40.5753 122.227 40.2362 122.003 39.9648C121.781 39.6942 121.461 39.5591 121.045 39.5596C120.605 39.5596 120.284 39.6961 120.083 39.9691C119.881 40.2421 119.771 40.6008 119.752 41.045L119.743 41.3091C119.743 42.4764 120.177 43.0598 121.045 43.0593C121.472 43.0593 121.793 42.918 122.008 42.6353Z" fill="#576982"/>
        <path d="M127.545 45.4288C127.24 45.2591 127.024 45.0647 126.899 44.8457C126.774 44.6286 126.711 44.4383 126.711 44.2806C126.711 44.2539 126.717 44.2274 126.728 44.2031C126.739 44.1787 126.755 44.157 126.775 44.1395C126.814 44.1016 126.866 44.0804 126.921 44.0802H127.324C127.373 44.0779 127.422 44.0922 127.462 44.1207C127.506 44.1609 127.538 44.2132 127.553 44.2712C127.724 44.7574 128.112 45.0005 128.718 45.0005C129.176 45.0005 129.516 44.904 129.737 44.7111C129.957 44.5182 130.067 44.1747 130.066 43.6808V43.0521C129.712 43.5021 129.217 43.7271 128.581 43.7271C127.933 43.7271 127.448 43.5204 127.125 43.107C126.803 42.6937 126.633 42.171 126.616 41.5392L126.606 41.2838L126.616 41.0378C126.634 40.4107 126.804 39.8898 127.125 39.4749C127.447 39.0601 127.932 38.852 128.581 38.8505C129.223 38.8505 129.724 39.0845 130.085 39.5523V39.1602C130.084 39.1316 130.089 39.1031 130.099 39.0763C130.109 39.0495 130.124 39.0249 130.144 39.0039C130.163 38.983 130.186 38.9664 130.212 38.9555C130.238 38.9445 130.267 38.9393 130.295 38.9402H130.689C130.717 38.9394 130.745 38.9447 130.771 38.9557C130.797 38.9666 130.821 38.9831 130.84 39.0039C130.879 39.0459 130.901 39.1014 130.9 39.1587V43.5795C130.9 44.9832 130.187 45.685 128.763 45.685C128.257 45.6845 127.851 45.5991 127.545 45.4288ZM129.713 42.5991C129.934 42.3118 130.058 41.9622 130.066 41.6007C130.073 41.5464 130.076 41.44 130.076 41.2816C130.076 41.1231 130.076 41.0269 130.066 40.9719C130.058 40.6106 129.934 40.2613 129.713 39.9742C129.495 39.6978 129.174 39.5596 128.747 39.5596C128.307 39.5596 127.987 39.6978 127.788 39.9742C127.589 40.2506 127.481 40.6075 127.463 41.045L127.454 41.2816L127.463 41.5283C127.481 41.9653 127.59 42.3223 127.788 42.5991C127.987 42.876 128.306 43.0142 128.747 43.0137C129.174 43.0137 129.497 42.8755 129.713 42.5991Z" fill="#576982"/>
        <path d="M132.776 43.5875C132.535 43.4765 132.326 43.3056 132.17 43.0912C132.023 42.8884 131.944 42.644 131.945 42.3937C131.943 42.2022 131.986 42.0128 132.072 41.8415C132.159 41.6702 132.285 41.5221 132.441 41.4097C132.771 41.1545 133.22 40.9843 133.789 40.8989L135.164 40.7079V40.4431C135.164 39.816 134.8 39.5025 134.072 39.5025C133.791 39.5025 133.563 39.5582 133.394 39.671C133.236 39.7686 133.107 39.9053 133.018 40.0675C133.003 40.1144 132.976 40.1567 132.94 40.1905C132.906 40.2135 132.866 40.2247 132.825 40.2224H132.467C132.414 40.2214 132.363 40.2 132.326 40.1626C132.288 40.1253 132.267 40.0748 132.266 40.022C132.266 39.8821 132.332 39.7195 132.464 39.5343C132.623 39.3256 132.833 39.1596 133.073 39.051C133.388 38.9058 133.734 38.8356 134.082 38.8462C134.766 38.8462 135.256 39.0042 135.552 39.3201C135.852 39.6417 136.012 40.0674 135.998 40.5053V43.4674C135.999 43.4951 135.994 43.5227 135.983 43.5484C135.973 43.5741 135.957 43.5975 135.938 43.6171C135.918 43.6366 135.894 43.652 135.868 43.6622C135.842 43.6724 135.815 43.6773 135.787 43.6765H135.384C135.356 43.6776 135.329 43.6729 135.304 43.6627C135.279 43.6524 135.257 43.6369 135.238 43.6172C135.2 43.5765 135.18 43.5226 135.183 43.4674V43.0658C135.034 43.2801 134.832 43.4528 134.596 43.5672C134.339 43.7009 134.009 43.7677 133.606 43.7677C133.319 43.7713 133.035 43.7097 132.776 43.5875ZM134.779 42.7128C135.036 42.4518 135.164 42.072 135.164 41.5732V41.3192L134.091 41.4741C133.651 41.5349 133.318 41.6381 133.092 41.7837C132.865 41.9294 132.752 42.1117 132.753 42.3307C132.748 42.4448 132.774 42.558 132.828 42.6588C132.882 42.7596 132.962 42.8444 133.06 42.9045C133.277 43.0418 133.53 43.1118 133.787 43.1056C133.971 43.1121 134.154 43.0805 134.325 43.0129C134.495 42.9453 134.65 42.843 134.779 42.7128Z" fill="#576982"/>
        <path d="M137.387 43.6193C137.367 43.5998 137.352 43.5764 137.342 43.5507C137.331 43.5249 137.327 43.4973 137.328 43.4695V39.1486C137.327 39.1208 137.331 39.0931 137.342 39.0672C137.352 39.0413 137.367 39.0178 137.387 38.9981C137.407 38.9784 137.431 38.9629 137.457 38.9527C137.483 38.9425 137.511 38.9377 137.539 38.9388H137.924C137.951 38.9378 137.978 38.9426 138.003 38.9528C138.028 38.963 138.051 38.9785 138.069 38.9981C138.106 39.0395 138.126 39.0933 138.124 39.1486V39.4583C138.454 39.0512 138.9 38.8477 139.462 38.8477C140.135 38.8477 140.612 39.1272 140.893 39.6862C141.042 39.429 141.259 39.2177 141.521 39.0756C141.8 38.9218 142.114 38.8432 142.433 38.8477C142.935 38.8477 143.344 39.0165 143.662 39.3541C143.979 39.6918 144.138 40.184 144.138 40.8308V43.4652C144.139 43.4929 144.134 43.5206 144.124 43.5464C144.114 43.5722 144.099 43.5957 144.079 43.6153C144.059 43.6349 144.036 43.6503 144.01 43.6605C143.984 43.6706 143.956 43.6753 143.928 43.6743H143.535C143.507 43.6752 143.479 43.6705 143.453 43.6603C143.427 43.6501 143.403 43.6346 143.383 43.615C143.364 43.5955 143.348 43.5721 143.338 43.5463C143.328 43.5205 143.323 43.4929 143.324 43.4652V40.9177C143.324 40.4315 143.223 40.0834 143.021 39.8736C142.918 39.7685 142.794 39.6863 142.656 39.6322C142.519 39.578 142.372 39.5533 142.224 39.5596C142.082 39.5583 141.942 39.5863 141.812 39.642C141.682 39.6977 141.564 39.7798 141.468 39.883C141.256 40.0986 141.151 40.4435 141.151 40.9177V43.4695C141.152 43.4973 141.147 43.5249 141.137 43.5508C141.126 43.5766 141.111 43.6 141.091 43.6197C141.072 43.6393 141.048 43.6546 141.022 43.6648C140.996 43.6749 140.968 43.6797 140.94 43.6786H140.537C140.509 43.6797 140.481 43.6749 140.455 43.6648C140.429 43.6547 140.406 43.6393 140.386 43.6197C140.366 43.6001 140.351 43.5766 140.34 43.5508C140.33 43.525 140.325 43.4973 140.326 43.4695V40.9177C140.326 40.4353 140.221 40.0887 140.009 39.878C139.908 39.7741 139.786 39.6922 139.651 39.6375C139.517 39.5827 139.372 39.5562 139.226 39.5596C139.085 39.558 138.945 39.5854 138.814 39.6402C138.684 39.695 138.567 39.7759 138.469 39.878C138.258 40.0907 138.153 40.4341 138.153 40.9083V43.4695C138.154 43.4973 138.149 43.5249 138.139 43.5508C138.129 43.5766 138.113 43.6 138.094 43.6197C138.074 43.6393 138.05 43.6546 138.024 43.6648C137.998 43.6749 137.97 43.6797 137.943 43.6786H137.539C137.511 43.6798 137.483 43.6751 137.457 43.6649C137.431 43.6547 137.407 43.6392 137.387 43.6193Z" fill="#576982"/>
        <path d="M145.864 43.191C145.491 42.8051 145.286 42.2781 145.249 41.6101L145.24 41.3004L145.249 40.9994C145.286 40.3429 145.491 39.8203 145.864 39.4315C146.237 39.0427 146.735 38.8484 147.358 38.8484C148.031 38.8484 148.552 39.0611 148.921 39.4865C149.291 39.9119 149.476 40.4891 149.476 41.2179V41.3822C149.477 41.41 149.472 41.4376 149.462 41.4635C149.452 41.4894 149.436 41.5129 149.416 41.5325C149.396 41.5522 149.373 41.5676 149.347 41.5779C149.321 41.5881 149.293 41.5929 149.265 41.592H146.082V41.6737C146.089 42.0418 146.217 42.3974 146.446 42.6867C146.552 42.8223 146.689 42.931 146.845 43.004C147.001 43.0769 147.173 43.112 147.345 43.1063C147.59 43.1167 147.833 43.0583 148.046 42.9377C148.202 42.8458 148.34 42.727 148.454 42.5868C148.488 42.5349 148.531 42.4899 148.582 42.4544C148.632 42.4362 148.685 42.4285 148.738 42.432H149.141C149.194 42.4301 149.245 42.4462 149.287 42.4776C149.305 42.4911 149.321 42.5089 149.331 42.5294C149.341 42.5499 149.347 42.5726 149.346 42.5955C149.346 42.7294 149.263 42.8907 149.099 43.0788C148.903 43.2889 148.663 43.4552 148.397 43.5665C148.069 43.7082 147.714 43.778 147.357 43.7712C146.734 43.7703 146.236 43.5769 145.864 43.191ZM148.642 40.9719V40.9444C148.642 40.52 148.526 40.1736 148.293 39.9054C148.061 39.6372 147.749 39.5036 147.358 39.5046C146.961 39.5046 146.649 39.6382 146.423 39.9054C146.197 40.1727 146.083 40.519 146.082 40.9444V40.9719H148.642Z" fill="#576982"/>
        <path d="M153.147 43.1504C152.826 42.7376 152.653 42.2149 152.629 41.5826L152.62 41.3091L152.629 41.0356C152.653 40.4085 152.828 39.8876 153.151 39.4728C153.475 39.0579 153.955 38.8498 154.591 38.8483C155.227 38.8483 155.722 39.0731 156.076 39.5227V37.4172C156.075 37.3894 156.08 37.3618 156.09 37.3359C156.1 37.31 156.116 37.2865 156.135 37.2669C156.155 37.2472 156.179 37.2317 156.205 37.2215C156.231 37.2113 156.259 37.2065 156.287 37.2074H156.7C156.728 37.2067 156.755 37.2116 156.781 37.2218C156.807 37.232 156.831 37.2472 156.851 37.2667C156.87 37.2864 156.886 37.3099 156.896 37.3358C156.906 37.3617 156.911 37.3894 156.91 37.4172V43.4695C156.911 43.4972 156.906 43.5248 156.896 43.5506C156.886 43.5764 156.87 43.5998 156.851 43.6193C156.831 43.6389 156.807 43.6543 156.781 43.6645C156.756 43.6747 156.728 43.6795 156.7 43.6786H156.305C156.278 43.6796 156.251 43.6748 156.226 43.6646C156.201 43.6543 156.179 43.6389 156.16 43.6193C156.123 43.5783 156.103 43.5246 156.105 43.4695V43.0774C155.757 43.539 155.253 43.7698 154.592 43.7698C153.949 43.7698 153.468 43.5633 153.147 43.1504ZM155.728 42.6353C155.945 42.3431 156.067 41.9915 156.076 41.6281C156.082 41.5616 156.085 41.4458 156.085 41.2816C156.085 41.1173 156.085 40.9922 156.076 40.9263C156.071 40.5754 155.947 40.2366 155.723 39.9648C155.5 39.6942 155.181 39.5591 154.765 39.5596C154.325 39.5596 154.004 39.6961 153.803 39.9691C153.601 40.2421 153.491 40.6007 153.472 41.045L153.463 41.3091C153.463 42.4764 153.897 43.0598 154.765 43.0593C155.192 43.0593 155.513 42.918 155.728 42.6353Z" fill="#576982"/>
        <path d="M158.689 43.191C158.316 42.8051 158.111 42.2781 158.074 41.6101L158.065 41.3004L158.074 40.9994C158.112 40.3429 158.317 39.8203 158.689 39.4315C159.062 39.0427 159.56 38.8484 160.183 38.8484C160.856 38.8484 161.377 39.0611 161.746 39.4865C162.115 39.9119 162.3 40.4891 162.3 41.2179V41.3822C162.302 41.4099 162.297 41.4377 162.287 41.4636C162.277 41.4895 162.261 41.513 162.241 41.5327C162.222 41.5524 162.198 41.5679 162.172 41.5781C162.146 41.5883 162.118 41.593 162.09 41.592H158.909V41.6737C158.916 42.0418 159.044 42.3974 159.273 42.6867C159.379 42.8222 159.515 42.9309 159.671 43.0038C159.827 43.0768 159.999 43.1119 160.171 43.1063C160.416 43.1168 160.659 43.0584 160.873 42.9377C161.028 42.8458 161.167 42.727 161.281 42.5868C161.314 42.5347 161.358 42.4897 161.409 42.4544C161.459 42.4362 161.512 42.4285 161.565 42.432H161.968C162.02 42.4301 162.072 42.4462 162.113 42.4776C162.132 42.4912 162.147 42.509 162.157 42.5295C162.167 42.55 162.173 42.5726 162.172 42.5955C162.172 42.7291 162.09 42.8902 161.925 43.0788C161.727 43.2881 161.487 43.4529 161.22 43.5621C160.893 43.7039 160.538 43.7738 160.18 43.7669C159.558 43.7688 159.061 43.5769 158.689 43.191ZM161.466 40.9719V40.9444C161.466 40.52 161.35 40.1736 161.119 39.9054C160.887 39.6372 160.575 39.5036 160.183 39.5046C159.786 39.5046 159.474 39.6382 159.248 39.9054C159.022 40.1727 158.909 40.519 158.909 40.9444V40.9719H161.466Z" fill="#576982"/>
        <path d="M164.575 43.4507L162.869 39.221C162.862 39.1911 162.859 39.1605 162.861 39.1298C162.86 39.1045 162.864 39.0794 162.874 39.0559C162.883 39.0324 162.897 39.011 162.915 38.9931C162.932 38.9758 162.952 38.962 162.974 38.9527C162.996 38.9433 163.02 38.9386 163.044 38.9388H163.465C163.512 38.9386 163.558 38.9523 163.597 38.9781C163.636 39.0038 163.666 39.0405 163.684 39.0835L165.096 42.7207L166.508 39.0835C166.523 39.0433 166.55 39.0085 166.586 38.9837C166.627 38.9522 166.679 38.9361 166.731 38.9381H167.153C167.177 38.938 167.201 38.9427 167.223 38.952C167.245 38.9614 167.265 38.9751 167.281 38.9924C167.299 39.0103 167.313 39.0316 167.323 39.0551C167.332 39.0786 167.337 39.1038 167.337 39.1291L167.318 39.2203L165.622 43.4493C165.597 43.5181 165.551 43.5773 165.49 43.6182C165.429 43.6592 165.356 43.6798 165.283 43.6772H164.919C164.845 43.6812 164.771 43.6613 164.709 43.6205C164.647 43.5797 164.6 43.5202 164.575 43.4507Z" fill="#576982"/>
        <path d="M167.816 43.6193C167.796 43.5998 167.78 43.5764 167.77 43.5506C167.76 43.5249 167.755 43.4972 167.756 43.4695V42.8386C167.754 42.7812 167.776 42.7255 167.816 42.6838C167.835 42.6631 167.858 42.6468 167.884 42.6358C167.911 42.6248 167.939 42.6195 167.967 42.6201H168.6C168.628 42.6195 168.656 42.6248 168.682 42.6358C168.708 42.6468 168.732 42.6631 168.751 42.6838C168.79 42.7258 168.812 42.7813 168.811 42.8386V43.4681C168.812 43.4958 168.807 43.5235 168.796 43.5493C168.786 43.5752 168.771 43.5986 168.751 43.6182C168.731 43.6378 168.707 43.6532 168.681 43.6633C168.655 43.6735 168.627 43.6782 168.6 43.6772H167.967C167.939 43.6783 167.911 43.6738 167.885 43.6638C167.859 43.6538 167.836 43.6387 167.816 43.6193Z" fill="#576982"/>
    </g>
    <defs>
        <clipPath id="clip0">
            <rect width="177" height="52" fill="white"/>
        </clipPath>
    </defs>
</svg>
